<svg width="36" height="33" viewBox="0 0 36 33" fill="none" xmlns="http://www.w3.org/2000/svg">
<path d="M23.3221 14.0149C23.3221 13.0676 24.0972 12.2925 25.0445 12.2925C25.9918 12.2925 26.7669 13.0676 26.7669 14.0149C26.7669 14.9623 25.9918 15.7374 25.0445 15.7374C24.0972 15.7374 23.3221 14.9623 23.3221 14.0149ZM11.2652 12.2925H19.8773V8.84769H11.2652V12.2925ZM35.379 9.70889V21.7141L30.5218 23.3332L27.6281 32.9615H18.1548V29.5167H14.71V32.9615H5.23671C5.23671 32.9615 0.930664 18.3899 0.930664 13.1537C0.930664 7.91758 5.16781 3.68043 10.404 3.68043H19.0161C20.5835 1.59631 23.081 0.235596 25.9057 0.235596C27.3353 0.235596 28.4894 1.38962 28.4894 2.81922C28.4894 3.18093 28.4205 3.50819 28.2827 3.81822C28.0415 4.40385 27.8348 5.07559 27.7315 5.79901L31.6414 9.70889H35.379ZM31.9342 13.1537H30.2118L24.1833 7.12527C24.1833 6.0057 24.3383 4.90335 24.6311 3.83545C22.9604 4.26605 21.5997 5.50619 21.0313 7.12527H10.404C7.0797 7.12527 4.3755 9.82946 4.3755 13.1537C4.3755 16.3919 6.47685 24.6078 7.83756 29.5167H11.2652V26.0719H21.5997V29.5167H25.0617L27.7315 20.6462L31.9342 19.2339V13.1537Z" fill="#002B3C"/>
</svg>
